# xmcd
#
# Track frame offsets:
#	150
#	10383
#	22207
#	31237
#	38953
#	48367
#	56961
#	65480
#	74090
#	82478
#	92961
#	103462
#	114806
#	124854
#	137610
#	146631
#	155501
#	166152
#	175402
#
# Disc length: 2456 seconds
#
# Revision: 0
# Processed by: cddbd v1.5.2PL0 Copyright (c) Steve Scherf et al.
# Submitted via: EZCDAudioConverter 2.2.2.1
#
DISCID=21099613
DTITLE=Eddie Noack
DYEAR=1900
DGENRE=Country
TTITLE0=Curtain In The Window
TTITLE1=Oh, Lonesome Me
TTITLE2=Stairway Of Love
TTITLE3=Blue Blue Day
TTITLE4=Squaws Along The Yukon
TTITLE5=Invitation To The Blues
TTITLE6=Gonna Have Myself A Party
TTITLE7=City Lights
TTITLE8=Alone With You
TTITLE9=Can't Play Hookey
TTITLE10=My Steady Dream
TTITLE11=Have Blues - Will Travel
TTITLE12=The Price Of Love
TTITLE13=Walk 'Em Off
TTITLE14=I Don't Live There Anymore
TTITLE15=A Thinkin' Man's Woman (A Lovin' Man's Girl)
TTITLE16=Don't Look Behind
TTITLE17=Relief Is Just A Swallow Away
TTITLE18=The Man On The Wall
EXTD=
EXTT0=
EXTT1=
EXTT2=
EXTT3=
EXTT4=
EXTT5=
EXTT6=
EXTT7=
EXTT8=
EXTT9=
EXTT10=
EXTT11=
EXTT12=
EXTT13=
EXTT14=
EXTT15=
EXTT16=
EXTT17=
EXTT18=
PLAYORDER=
